<?xml version="1.0" encoding="UTF-8"?>
<!DOCTYPE svg PUBLIC "-//W3C//DTD SVG 1.1//EN" "http://www.w3.org/Graphics/SVG/1.1/DTD/svg11.dtd">
<!-- Creator: CorelDRAW 2017 -->
<svg xmlns="http://www.w3.org/2000/svg" xml:space="preserve" width="17.7528in" height="16.7201in" version="1.1" style="shape-rendering:geometricPrecision; text-rendering:geometricPrecision; image-rendering:optimizeQuality; fill-rule:evenodd; clip-rule:evenodd"
viewBox="0 0 1144969 1078364"
 xmlns:xlink="http://www.w3.org/1999/xlink">
 <defs>
  <style type="text/css">
   <![CDATA[
    .fil1 {fill:black}
    .fil0 {fill:#1C68D8}
    .fil3 {fill:#4D4D4D}
    .fil2 {fill:red}
   ]]>
  </style>
 </defs>
 <g id="Layer_x0020_1">
  <metadata id="CorelCorpID_0Corel-Layer"/>
  <g id="_2078780630400">
   <path class="fil0" d="M903524 135466c0,-76415 -63295,-138035 -140268,-135383 -67831,2373 -123450,54572 -129940,122124 -1326,13399 -558,26448 1814,38940l0 0c0,0 209,1465 907,4187 2094,9351 5164,18353 9142,26867 14027,33148 46826,89116 121496,149550 837,698 2094,698 2931,0 74740,-60434 107469,-116402 121496,-149550 3908,-8514 7048,-17516 9142,-26867 628,-2722 907,-4187 907,-4187l0 0c1535,-8235 2373,-16888 2373,-25681zm-73414 55549c-1814,-3420 -4815,-6211 -9491,-7467 -16260,-4117 -29519,-13469 -29519,-13469l-10328 32659 -1954 6141 0 -70 -1675 5234 -5443 -15422c13399,-18702 -2721,-18493 -3629,-18493 -907,0 -17028,-209 -3629,18493l-5443 15422 -1675 -5234 0 70 -1954 -6141 -10328 -32659c0,0 -13259,9351 -29519,13469 -4676,1186 -7676,4047 -9491,7467 -12561,-14445 -20168,-33287 -20168,-53944 0,-45430 36847,-82207 82207,-82207 45360,0 82207,36777 82207,82207 0,20657 -7606,39499 -20168,53944z"/>
   <path class="fil0" d="M798287 126184c489,-1466 907,-2861 1186,-4327 4536,-27146 -8863,-28123 -8863,-28123 0,0 -2233,-4257 -8025,-7467 -3908,-2303 -9351,-4117 -16539,-3489 -2303,140 -4536,558 -6560,1256l0 0c-2652,907 -5094,2163 -7258,3699 -2722,1675 -5234,3768 -7467,6141 -3559,3629 -6699,8304 -8095,14166 -1116,4397 -907,8933 70,13817l0 0c279,1396 628,2861 1186,4327 -2652,-279 -5792,1326 -2861,11794 2163,7676 4187,9840 5722,9909 1396,9142 8444,20726 20028,24774 4745,1675 9979,1675 14655,0 11375,-4117 18633,-15632 20029,-24774 1535,-140 3559,-2303 5722,-9909 2931,-10538 -209,-12073 -2931,-11794z"/>
  </g>
  <path class="fil1" d="M695071 1078364c-10517,0 -19017,-8501 -19017,-19017 0,-10517 8501,-19017 19017,-19017l36703 0c10517,0 19683,8501 19683,18998 0,10517 -7835,19017 -18352,19017l0 -19017 -552 19017 -37483 19zm-76069 0l-38034 0c-10517,0 -19017,-8501 -19017,-19017 0,-10517 8501,-19017 19017,-19017l38034 0c10517,0 19017,8501 19017,19017 0,10517 -8501,19017 -19017,19017zm-114104 0l-38035 0c-10517,0 -19017,-8501 -19017,-19017 0,-10517 8501,-19017 19017,-19017l38035 0c10517,0 19017,8501 19017,19017 0,10517 -8501,19017 -19017,19017zm-114104 0l-38035 0c-10517,0 -19017,-8501 -19017,-19017 0,-10517 8501,-19017 19017,-19017l38035 0c10517,0 19017,8501 19017,19017 0,10517 -8501,19017 -19017,19017zm-114104 0l-38034 0c-10517,0 -19017,-8501 -19017,-19017 0,-10517 8501,-19017 19017,-19017l38034 0c10517,0 19017,8501 19017,19017 0,10517 -8501,19017 -19017,19017zm-114104 0l-38035 0c-10517,0 -19017,-8501 -19017,-19017 0,-10517 8501,-19017 19017,-19017l38035 0c10517,0 19017,8501 19017,19017 0,10517 -8501,19017 -19017,19017zm636452 -32672c-4108,0 -8253,-1331 -11734,-4070 -8272,-6504 -9680,-18466 -3195,-26700 6181,-7854 10422,-16773 12609,-26472 2301,-10250 12475,-16678 22726,-14377 10250,2301 16678,12475 14377,22726 -3385,15062 -10231,29458 -19816,41610 -3747,4792 -9319,7283 -14967,7283zm19 -105793c-5648,0 -11220,-2491 -14967,-7265 -6086,-7740 -13959,-14149 -22764,-18523 -9394,-4678 -13236,-16089 -8558,-25502 4678,-9394 16051,-13255 25502,-8558 13826,6865 26168,16925 35733,29058 6485,8254 5078,20215 -3195,26700 -3480,2739 -7645,4089 -11753,4089zm-103968 -32691l-38035 0c-10517,0 -19017,-8501 -19017,-19017 0,-10517 8501,-19017 19017,-19017l38035 0c10517,0 19017,8501 19017,19017 0,10517 -8501,19017 -19017,19017zm-114104 0l-38035 0c-10517,0 -19017,-8501 -19017,-19017 0,-10517 8501,-19017 19017,-19017l38035 0c10517,0 19017,8501 19017,19017 0,10517 -8501,19017 -19017,19017zm-113001 -7721c-2643,0 -5325,-552 -7892,-1730 -13997,-6390 -26662,-16051 -36646,-27899 -6751,-8044 -5724,-20044 2320,-26795 8044,-6751 20025,-5724 26795,2320 6352,7550 14434,13712 23353,17800 9547,4355 13749,15632 9375,25198 -3195,6979 -10079,11106 -17306,11106zm-48475 -94021c-1198,0 -2396,-114 -3594,-342 -10326,-1978 -17058,-11962 -15100,-22269 2948,-15385 9185,-29591 18504,-42256 6238,-8463 18124,-10250 26586,-4051 8463,6238 10269,18142 4051,26586 -5952,8063 -9908,17097 -11772,26871 -1769,9128 -9737,15461 -18675,15461zm79949 -69318c-10136,0 -18580,-8006 -18979,-18238 -418,-10497 7721,-19359 18219,-19778 1616,-76 3233,-114 4868,-114l33946 0c10517,0 19017,8501 19017,19017 0,10517 -8501,19017 -19017,19017l-37255 76c-266,19 -532,19 -799,19zm346419 -95l-4089 0c-10517,0 -19017,-8501 -19017,-19017 0,-10517 8501,-19017 19017,-19017l4089 0c8919,0 17553,-1730 25711,-5154 9604,-4089 20824,476 24894,10174 4070,9680 -476,20824 -10174,24894 -12837,5382 -26434,8120 -40431,8120zm-80158 0l-38034 0c-10517,0 -19017,-8501 -19017,-19017 0,-10517 8501,-19017 19017,-19017l38034 0c10517,0 19017,8501 19017,19017 0,10517 -8501,19017 -19017,19017zm-114104 0l-38035 0c-10517,0 -19017,-8501 -19017,-19017 0,-10517 8501,-19017 19017,-19017l38035 0c10517,0 19017,8501 19017,19017 0,10517 -8501,19017 -19017,19017zm276379 -61426c-1769,0 -3575,-247 -5344,-761 -10079,-2947 -15860,-13521 -12913,-23600 1788,-6086 2700,-12399 2700,-18789 38,-3651 -266,-7113 -799,-10497 -1674,-10364 5382,-20139 15766,-21794 10326,-1712 20120,5382 21794,15766 894,5572 1312,11182 1274,16659 0,9870 -1407,19778 -4222,29344 -2434,8292 -10022,13673 -18257,13673zm-39328 -98243c-3233,0 -6523,-818 -9528,-2567 -8615,-5001 -18009,-7930 -27955,-8710 -10478,-818 -18295,-9965 -17477,-20443 818,-10497 10003,-18238 20443,-17477 15651,1217 30504,5857 44063,13731 9090,5268 12190,16925 6903,25997 -3499,6066 -9889,9470 -16450,9470zm-112069 -11486l-38035 0c-10517,0 -19017,-8501 -19017,-19017 0,-10517 8501,-19017 19017,-19017l38035 0c10517,0 19017,8501 19017,19017 0,10517 -8501,19017 -19017,19017zm-114104 0l-38035 0c-10517,0 -19017,-8501 -19017,-19017 0,-10517 8501,-19017 19017,-19017l38035 0c10517,0 19017,8501 19017,19017 0,10517 -8501,19017 -19017,19017zm-114104 0l-38034 0c-10517,0 -19017,-8501 -19017,-19017 0,-10517 8501,-19017 19017,-19017l38034 0c10517,0 19017,8501 19017,19017 0,10517 -8501,19017 -19017,19017zm-114104 0l-6789 0c-12894,-19 -25426,-2339 -37331,-6865 -9813,-3747 -14719,-14738 -10992,-24551 3765,-9832 14815,-14700 24551,-10992 7569,2890 15575,4355 23810,4374l6751 0c10517,0 19017,8501 19017,19017 0,10517 -8501,19017 -19017,19017zm-88107 -58858c-7987,0 -15442,-5078 -18067,-13084 -3461,-10497 -5192,-21490 -5192,-32672 19,-4526 304,-8919 837,-13198 1293,-10383 10497,-17705 21243,-16488 10421,1293 17819,10821 16488,21242 -361,2796 -514,5667 -532,8539 0,7037 1122,14016 3309,20691 3271,9965 -2149,20729 -12133,24019 -1978,666 -3994,951 -5952,951zm36209 -99441c-6352,0 -12551,-3176 -16165,-8957 -5553,-8919 -2834,-20653 6066,-26206 13312,-8311 27993,-13369 43626,-15100 10517,-1084 19835,6390 20995,16830 1160,10441 -6390,19835 -16830,20995 -9908,1103 -19226,4317 -27651,9566 -3138,1940 -6599,2872 -10041,2872zm263808 -12856l-38035 0c-10517,0 -19017,-8501 -19017,-19017 0,-10517 8501,-19017 19017,-19017l38035 0c10517,0 19017,8501 19017,19017 0,10517 -8501,19017 -19017,19017zm-114104 0l-38035 0c-10517,0 -19017,-8501 -19017,-19017 0,-10517 8501,-19017 19017,-19017l38035 0c10517,0 19017,8501 19017,19017 0,10517 -8501,19017 -19017,19017z"/>
  <path class="fil2" d="M74420 1059957c261422,-295335 -258767,-292335 0,0zm0 -102034c-20123,0 -36441,-16318 -36441,-36441 0,-20123 16318,-36441 36441,-36441 20123,0 36441,16318 36441,36441 0,20123 -16318,36441 -36441,36441z"/>
  <g id="_2078780631072">
   <path class="fil3" d="M160286 180261c0,-40181 -33282,-72583 -73757,-71189 -35668,1248 -64914,28696 -68326,64216 -697,7045 -294,13907 954,20476l0 0c0,0 110,770 477,2201 1101,4917 2715,9651 4807,14128 7376,17430 24622,46860 63886,78638 441,367 1101,367 1541,0 39300,-31778 56511,-61207 63886,-78638 2055,-4477 3706,-9210 4807,-14128 330,-1431 477,-2201 477,-2201l0 0c807,-4330 1248,-8880 1248,-13504zm-38603 29209c-954,-1798 -2532,-3266 -4991,-3926 -8550,-2165 -15522,-7082 -15522,-7082l-5431 17174 -1028 3229 0 -37 -881 2752 -2862 -8110c7045,-9834 -1431,-9724 -1908,-9724 -477,0 -8954,-110 -1908,9724l-2862 8110 -881 -2752 0 37 -1027 -3229 -5431 -17174c0,0 -6972,4917 -15522,7082 -2459,624 -4037,2128 -4991,3926 -6605,-7596 -10605,-17504 -10605,-28365 0,-23889 19375,-43227 43227,-43227 23852,0 43227,19338 43227,43227 0,10862 -4000,20769 -10605,28365z"/>
   <path class="fil3" d="M104950 175380c257,-771 477,-1504 624,-2275 2385,-14274 -4660,-14788 -4660,-14788 0,0 -1174,-2239 -4220,-3927 -2055,-1211 -4917,-2165 -8697,-1835 -1211,73 -2385,294 -3449,660l0 0c-1395,477 -2679,1138 -3816,1945 -1431,881 -2752,1982 -3926,3229 -1872,1908 -3523,4367 -4257,7449 -587,2312 -477,4697 37,7266l0 0c147,734 330,1504 624,2275 -1394,-147 -3046,697 -1504,6201 1138,4037 2202,5174 3009,5211 734,4807 4440,10898 10532,13027 2495,881 5247,881 7706,0 5981,-2165 9797,-8220 10532,-13027 807,-73 1871,-1211 3009,-5211 1541,-5541 -110,-6348 -1541,-6201z"/>
  </g>
  <g id="_2078780631936">
   <path class="fil3" d="M1144969 868527c0,-40181 -33282,-72583 -73757,-71189 -35668,1248 -64914,28696 -68326,64216 -697,7045 -294,13907 954,20476l0 0c0,0 110,770 477,2201 1101,4917 2715,9651 4807,14128 7376,17430 24622,46860 63886,78638 441,367 1101,367 1541,0 39300,-31778 56511,-61207 63886,-78638 2055,-4477 3706,-9210 4807,-14128 330,-1431 477,-2201 477,-2201l0 0c807,-4330 1248,-8880 1248,-13504zm-38603 29209c-954,-1798 -2532,-3266 -4991,-3926 -8550,-2165 -15522,-7082 -15522,-7082l-5431 17174 -1028 3229 0 -37 -881 2752 -2862 -8110c7045,-9834 -1431,-9724 -1908,-9724 -477,0 -8954,-110 -1908,9724l-2862 8110 -881 -2752 0 37 -1027 -3229 -5431 -17174c0,0 -6972,4917 -15522,7082 -2459,624 -4037,2128 -4991,3926 -6605,-7596 -10605,-17504 -10605,-28365 0,-23889 19375,-43227 43227,-43227 23852,0 43227,19338 43227,43227 0,10862 -4000,20769 -10605,28365z"/>
   <path class="fil3" d="M1089632 863646c257,-771 477,-1504 624,-2275 2385,-14274 -4660,-14788 -4660,-14788 0,0 -1174,-2239 -4220,-3927 -2055,-1211 -4917,-2165 -8697,-1835 -1211,73 -2385,294 -3449,660l0 0c-1395,477 -2679,1138 -3816,1945 -1431,881 -2752,1982 -3926,3229 -1872,1908 -3523,4367 -4257,7449 -587,2312 -477,4697 37,7266l0 0c147,734 330,1504 624,2275 -1394,-147 -3046,697 -1504,6201 1138,4037 2202,5174 3009,5211 734,4807 4440,10898 10532,13027 2495,881 5247,881 7706,0 5981,-2165 9797,-8220 10532,-13027 807,-73 1871,-1211 3009,-5211 1541,-5541 -110,-6348 -1541,-6201z"/>
  </g>
  <g id="_2078780631680">
   <path class="fil3" d="M243302 617355c0,-40181 -33282,-72583 -73757,-71189 -35668,1248 -64914,28696 -68326,64216 -697,7045 -294,13907 954,20476l0 0c0,0 110,770 477,2201 1101,4917 2715,9651 4807,14128 7376,17430 24622,46860 63886,78638 441,367 1101,367 1541,0 39300,-31778 56511,-61207 63886,-78638 2055,-4477 3706,-9210 4807,-14128 330,-1431 477,-2201 477,-2201l0 0c807,-4330 1248,-8880 1248,-13504zm-38603 29209c-954,-1798 -2532,-3266 -4991,-3926 -8550,-2165 -15522,-7082 -15522,-7082l-5431 17174 -1028 3229 0 -37 -881 2752 -2862 -8110c7045,-9834 -1431,-9724 -1908,-9724 -477,0 -8954,-110 -1908,9724l-2862 8110 -881 -2752 0 37 -1027 -3229 -5431 -17174c0,0 -6972,4917 -15522,7082 -2459,624 -4037,2128 -4991,3926 -6605,-7596 -10605,-17504 -10605,-28365 0,-23889 19375,-43227 43227,-43227 23852,0 43227,19338 43227,43227 0,10862 -4000,20769 -10605,28365z"/>
   <path class="fil3" d="M187966 612475c257,-771 477,-1504 624,-2275 2385,-14274 -4660,-14788 -4660,-14788 0,0 -1174,-2239 -4220,-3927 -2055,-1211 -4917,-2165 -8697,-1835 -1211,73 -2385,294 -3449,660l0 0c-1395,477 -2679,1138 -3816,1945 -1431,881 -2752,1982 -3926,3229 -1872,1908 -3523,4367 -4257,7449 -587,2312 -477,4697 37,7266l0 0c147,734 330,1504 624,2275 -1394,-147 -3046,697 -1504,6201 1138,4037 2202,5174 3009,5211 734,4807 4440,10898 10532,13027 2495,881 5247,881 7706,0 5981,-2165 9797,-8220 10532,-13027 807,-73 1871,-1211 3009,-5211 1541,-5541 -110,-6348 -1541,-6201z"/>
  </g>
 </g>
</svg>
